<svg width="34" height="33" viewBox="0 0 34 33" fill="none" xmlns="http://www.w3.org/2000/svg">
<g clip-path="url(#clip0_735_614)">
<path d="M18.7476 0C20.66 0.00494988 21.6307 0.0148496 22.4687 0.0379491L22.7985 0.0494988C23.1793 0.0626984 23.555 0.079198 24.0089 0.0989975C25.8176 0.181496 27.0517 0.458689 28.1345 0.866229C29.2565 1.28532 30.2016 1.85291 31.1468 2.76863C32.0115 3.59317 32.6804 4.59097 33.1068 5.69236C33.5267 6.74339 33.8123 7.94126 33.8973 9.69846C33.9177 10.1374 33.9347 10.502 33.9483 10.8732L33.9585 11.1933C33.984 12.0051 33.9942 12.9472 33.9976 14.8034L33.9993 16.0343V18.1958C34.0034 19.3992 33.9904 20.6027 33.9602 21.8059L33.95 22.126C33.9364 22.4972 33.9194 22.8618 33.899 23.3007C33.814 25.0579 33.525 26.2542 33.1068 27.3068C32.6804 28.4082 32.0115 29.406 31.1468 30.2306C30.2973 31.0699 29.2693 31.7191 28.1345 32.133C27.0517 32.5405 25.8176 32.8177 24.0089 32.9002L22.7985 32.9497L22.4687 32.9596C21.6307 32.9827 20.66 32.9943 18.7476 32.9976L17.4795 32.9992H15.2543C14.0138 33.0034 12.7733 32.9908 11.5332 32.9613L11.2034 32.9514C10.7999 32.9365 10.3964 32.9195 9.99306 32.9002C8.18435 32.8177 6.95022 32.5405 5.86567 32.133C4.73154 31.7189 3.70413 31.0697 2.85512 30.2306C1.98977 29.4062 1.32029 28.4084 0.893422 27.3068C0.473543 26.2558 0.187957 25.0579 0.102962 23.3007L0.0519643 22.126L0.0434649 21.8059C0.0121288 20.6027 -0.0020387 19.3993 0.000966906 18.1958V14.8034C-0.00373828 13.6 0.00872908 12.3965 0.0383651 11.1933L0.0502645 10.8732C0.0638638 10.502 0.0808629 10.1374 0.101262 9.69846C0.186258 7.94126 0.471843 6.74504 0.891722 5.69236C1.31958 4.59052 1.99025 3.59268 2.85682 2.76863C3.70534 1.92971 4.73215 1.28049 5.86567 0.866229C6.95022 0.458689 8.18265 0.181496 9.99306 0.0989975C10.4452 0.079198 10.8226 0.0626984 11.2034 0.0494988L11.5332 0.0395989C12.7727 0.0102837 14.0127 -0.00236719 15.2526 0.00164984L18.7476 0ZM17.0001 8.2498C14.7459 8.2498 12.584 9.11897 10.99 10.6661C9.39603 12.2132 8.50054 14.3116 8.50054 16.4996C8.50054 18.6876 9.39603 20.786 10.99 22.3331C12.584 23.8802 14.7459 24.7494 17.0001 24.7494C19.2543 24.7494 21.4162 23.8802 23.0102 22.3331C24.6042 20.786 25.4997 18.6876 25.4997 16.4996C25.4997 14.3116 24.6042 12.2132 23.0102 10.6661C21.4162 9.11897 19.2543 8.2498 17.0001 8.2498ZM17.0001 11.5497C17.6698 11.5496 18.333 11.6775 18.9518 11.9262C19.5705 12.1748 20.1328 12.5394 20.6064 12.9989C21.0801 13.4585 21.4558 14.0041 21.7122 14.6046C21.9686 15.2051 22.1006 15.8487 22.1007 16.4988C22.1008 17.1488 21.969 17.7925 21.7128 18.3931C21.4566 18.9937 21.0811 19.5394 20.6076 19.9991C20.1341 20.4588 19.572 20.8235 18.9533 21.0724C18.3346 21.3212 17.6715 21.4494 17.0018 21.4495C15.6493 21.4495 14.3521 20.928 13.3957 19.9997C12.4394 19.0714 11.9021 17.8124 11.9021 16.4996C11.9021 15.1868 12.4394 13.9278 13.3957 12.9995C14.3521 12.0712 15.6493 11.5497 17.0018 11.5497M25.9264 5.77486C25.3628 5.77486 24.8223 5.99215 24.4238 6.37894C24.0253 6.76572 23.8015 7.29031 23.8015 7.83731C23.8015 8.38431 24.0253 8.9089 24.4238 9.29568C24.8223 9.68247 25.3628 9.89976 25.9264 9.89976C26.4899 9.89976 27.0304 9.68247 27.4289 9.29568C27.8274 8.9089 28.0513 8.38431 28.0513 7.83731C28.0513 7.29031 27.8274 6.76572 27.4289 6.37894C27.0304 5.99215 26.4899 5.77486 25.9264 5.77486Z" fill="#4F4E51"/>
</g>
<defs>
<clipPath id="clip0_735_614">
<rect width="34" height="33" fill="white"/>
</clipPath>
</defs>
</svg>
