<svg width="33" height="32" viewBox="0 0 33 32" fill="none" xmlns="http://www.w3.org/2000/svg">
<path d="M24.7042 0.0136719H8.26963C3.7161 0.0136719 0 3.61716 0 8.0327V23.9946C0 28.3848 3.7161 31.9883 8.26963 31.9883H24.7304C29.2839 31.9883 33 28.3848 33 23.9693V8.0327C32.9738 3.61716 29.2577 0.0136719 24.7042 0.0136719ZM10.9913 25.8979H6.28073V12.702H10.9913V25.8979ZM8.60983 10.6719C7.27518 10.6719 6.20222 9.63143 6.20222 8.33722C6.20222 7.04301 7.27518 6.00257 8.60983 6.00257C9.94449 6.00257 11.0174 7.04301 11.0174 8.33722C10.9913 9.63143 9.91832 10.6719 8.60983 10.6719ZM26.7193 25.8979H26.6931H22.7676V19.503C22.7676 17.955 22.5583 15.9756 20.3862 15.9756C18.1618 15.9756 17.7954 17.6505 17.7954 19.4015V25.8979H13.8699V12.702H17.5337V14.4784H17.6384C18.2141 13.4633 19.5488 12.6766 21.6423 12.6766C25.9604 12.6766 26.7193 15.0874 26.7193 18.6655V25.8979Z" fill="#4F4E51"/>
</svg>
