<svg width="35" height="32" viewBox="0 0 35 32" fill="none" xmlns="http://www.w3.org/2000/svg">
<path d="M20.4251 20.8434C19.5543 21.5502 18.5429 21.9238 17.5 21.9238C16.4573 21.9238 15.4458 21.5502 14.5751 20.8434L0.233038 9.20126C0.153467 9.13667 0.0759474 9.06933 0 9.00008V28.077C0 30.2642 1.45777 32 3.22199 32H31.778C33.5744 32 35 30.225 35 28.077V9C34.9239 9.06942 34.8463 9.13692 34.7665 9.20159L20.4251 20.8434Z" fill="#4F4E51"/>
<path d="M1.37061 6.91563L15.7126 18.3507C16.2555 18.7836 16.8777 19 17.4999 19C18.1222 19 18.7445 18.7835 19.2874 18.3507L33.6294 6.91563C34.4876 6.23177 35 5.08723 35 3.85195C35 1.72793 33.5551 0 31.7791 0H3.22089C1.44491 8.17528e-05 0 1.72801 0 3.85399C0 5.08723 0.512422 6.23177 1.37061 6.91563Z" fill="#4F4E51"/>
</svg>
