<svg width="25" height="25" viewBox="0 0 25 25" fill="none" xmlns="http://www.w3.org/2000/svg">
<g id="instagram" clip-path="url(#clip0_967_438)">
<path id="Vector" d="M12.5 9.84375C11.9746 9.84375 11.4611 9.99954 11.0243 10.2914C10.5874 10.5833 10.247 10.9981 10.0459 11.4835C9.8449 11.9689 9.7923 12.5029 9.89479 13.0182C9.99728 13.5335 10.2503 14.0068 10.6217 14.3783C10.9932 14.7497 11.4665 15.0027 11.9818 15.1052C12.4971 15.2077 13.0311 15.1551 13.5165 14.9541C14.0019 14.753 14.4167 14.4126 14.7086 13.9757C15.0005 13.5389 15.1563 13.0254 15.1563 12.5C15.1555 11.7957 14.8754 11.1205 14.3774 10.6226C13.8795 10.1246 13.2043 9.84448 12.5 9.84375Z" fill="#F9F9F9"/>
<path id="Vector_2" d="M19.4121 0.390625H5.58594C4.20868 0.392665 2.88842 0.940682 1.91455 1.91455C0.940682 2.88842 0.392665 4.20868 0.390625 5.58594V19.4121C0.392258 20.7897 0.940082 22.1104 1.91398 23.0846C2.88788 24.0589 4.20838 24.6072 5.58594 24.6094H19.4121C20.79 24.6076 22.1109 24.0595 23.0852 23.0852C24.0595 22.1109 24.6076 20.79 24.6094 19.4121V5.58594C24.6072 4.20838 24.0589 2.88788 23.0846 1.91398C22.1104 0.940082 20.7897 0.392258 19.4121 0.390625ZM12.5 17.8633C11.4392 17.8633 10.4023 17.5487 9.52032 16.9594C8.63833 16.3701 7.95091 15.5325 7.54497 14.5524C7.13904 13.5724 7.03283 12.4941 7.23977 11.4537C7.44672 10.4133 7.95752 9.45766 8.70759 8.70759C9.45766 7.95752 10.4133 7.44672 11.4537 7.23977C12.4941 7.03283 13.5724 7.13904 14.5524 7.54497C15.5325 7.95091 16.3701 8.63833 16.9594 9.52032C17.5487 10.4023 17.8633 11.4392 17.8633 12.5C17.8616 13.9219 17.296 15.2851 16.2905 16.2905C15.2851 17.296 13.9219 17.8616 12.5 17.8633ZM19.2734 7.64453C18.8955 7.64434 18.5262 7.53211 18.212 7.32204C17.8979 7.11197 17.6531 6.81348 17.5086 6.46431C17.364 6.11513 17.3263 5.73095 17.4001 5.36032C17.4738 4.98968 17.6558 4.64924 17.923 4.38202C18.1903 4.11481 18.5307 3.93281 18.9013 3.85904C19.272 3.78526 19.6561 3.82303 20.0053 3.96756C20.3545 4.11208 20.653 4.35689 20.8631 4.67102C21.0731 4.98516 21.1854 5.35452 21.1855 5.73242C21.1851 6.23941 20.9835 6.72549 20.625 7.08398C20.2665 7.44247 19.7804 7.64407 19.2734 7.64453Z" fill="#F9F9F9"/>
</g>
<defs>
<clipPath id="clip0_967_438">
<rect width="25" height="25" fill="white"/>
</clipPath>
</defs>
</svg>
