<svg width="24" height="25" viewBox="0 0 24 25" fill="none" xmlns="http://www.w3.org/2000/svg">
<g id="linkedin" clip-path="url(#clip0_967_441)">
<g id="Group">
<g id="Group_2">
<path id="Vector" d="M17.9667 0.010498H6.01427C2.70262 0.010498 0 2.82122 0 6.26534V18.7157C0 22.14 2.70262 24.9507 6.01427 24.9507H17.9857C21.2974 24.9507 24 22.14 24 18.6959V6.26534C23.981 2.82122 21.2784 0.010498 17.9667 0.010498ZM7.99366 20.2002H4.5678V9.9074H7.99366V20.2002ZM6.2617 8.3239C5.29104 8.3239 4.51071 7.51235 4.51071 6.50287C4.51071 5.49338 5.29104 4.68184 6.2617 4.68184C7.23236 4.68184 8.01269 5.49338 8.01269 6.50287C7.99366 7.51235 7.21332 8.3239 6.2617 8.3239ZM19.4322 20.2002H19.4132H16.5583V15.2121C16.5583 14.0047 16.406 12.4608 14.8263 12.4608C13.2086 12.4608 12.9421 13.7672 12.9421 15.133V20.2002H10.0872V9.9074H12.7518V11.293H12.8279C13.2466 10.5012 14.2173 9.88761 15.7399 9.88761C18.8803 9.88761 19.4322 11.768 19.4322 14.559V20.2002Z" fill="#F9F9F9"/>
</g>
</g>
</g>
<defs>
<clipPath id="clip0_967_441">
<rect width="24" height="24.96" fill="white"/>
</clipPath>
</defs>
</svg>
