<svg width="24" height="25" viewBox="0 0 24 25" fill="none" xmlns="http://www.w3.org/2000/svg">
<g clip-path="url(#clip0_967_446)">
<path d="M23.415 21.4084L18.341 16.1325C19.388 14.4882 20 12.5195 20 10.4C20 4.65504 15.524 0 10 0C4.477 0 0 4.65504 0 10.4C0 16.1439 4.477 20.8 10 20.8C12.038 20.8 13.932 20.1635 15.512 19.0746L20.586 24.3506C21.366 25.1618 22.633 25.1618 23.415 24.3495C24.195 23.5373 24.195 22.2196 23.415 21.4084ZM10 17.68C6.14 17.68 3 14.4134 3 10.4C3 6.3856 6.14 3.12 10 3.12C13.859 3.12 17 6.3856 17 10.4C17 14.4134 13.859 17.68 10 17.68Z" fill="#F9F9F9"/>
</g>
<defs>
<clipPath id="clip0_967_446">
<rect width="24" height="24.96" fill="white"/>
</clipPath>
</defs>
</svg>
