<svg width="44" height="32" viewBox="0 0 44 32" fill="none" xmlns="http://www.w3.org/2000/svg">
<path d="M43.0784 4.99645C42.5782 3.03004 41.1046 1.48001 39.2323 0.953868C35.8411 3.57628e-07 22.2383 0 22.2383 0C22.2383 0 8.63547 3.57628e-07 5.24247 0.953868C3.37197 1.48001 1.89841 3.02815 1.39816 4.99645C0.488281 8.5621 0.488281 16 0.488281 16C0.488281 16 0.488281 23.4379 1.39816 27.0035C1.89841 28.97 3.37197 30.52 5.24428 31.0461C8.63547 32 22.2383 32 22.2383 32C22.2383 32 35.8411 32 39.2341 31.0461C41.1046 30.52 42.5782 28.9718 43.0802 27.0035C43.9883 23.4379 43.9883 16 43.9883 16C43.9883 16 43.9883 8.5621 43.0784 4.99645ZM17.7904 22.7547V9.24533L29.1584 16L17.7904 22.7547Z" fill="#4F4E51"/>
</svg>
